<svg xmlns="http://www.w3.org/2000/svg" version="1.1" xmlns:xlink="http://www.w3.org/1999/xlink" xmlns:svgjs="http://svgjs.dev/svgjs" width="1440" height="560" preserveAspectRatio="none" viewBox="0 0 1440 560"><g mask="url(&quot;#SvgjsMask1719&quot;)" fill="none"><g transform="translate(0, 0)" stroke-linecap="round"><path d="M190 248.66 L190 311.34" stroke-width="15" stroke="rgba(90, 24, 154, 1)"></path><path d="M210 92.92 L210 467.08" stroke-width="15" stroke="rgba(90, 24, 154, 1)"></path><path d="M230 201.8 L230 358.2" stroke-width="15" stroke="rgba(90, 24, 154, 1)"></path><path d="M250 143.44 L250 416.56" stroke-width="15" stroke="rgba(90, 24, 154, 1)"></path><path d="M270 209.5 L270 350.5" stroke-width="15" stroke="rgba(90, 24, 154, 1)"></path><path d="M290 177.26 L290 382.74" stroke-width="15" stroke="rgba(123, 44, 191, 1)"></path><path d="M310 85.12 L310 474.88" stroke-width="15" stroke="rgba(123, 44, 191, 1)"></path><path d="M330 115.85 L330 444.14" stroke-width="15" stroke="rgba(90, 24, 154, 1)"></path><path d="M350 141.47 L350 418.53" stroke-width="15" stroke="rgba(90, 24, 154, 1)"></path><path d="M370 161.76 L370 398.24" stroke-width="15" stroke="rgba(90, 24, 154, 1)"></path><path d="M390 207.19 L390 352.81" stroke-width="15" stroke="rgba(123, 44, 191, 1)"></path><path d="M410 246.78 L410 313.22" stroke-width="15" stroke="rgba(90, 24, 154, 1)"></path><path d="M430 87.18 L430 472.82" stroke-width="15" stroke="rgba(123, 44, 191, 1)"></path><path d="M450 184.53 L450 375.47" stroke-width="15" stroke="rgba(123, 44, 191, 1)"></path><path d="M470 129.21 L470 430.79" stroke-width="15" stroke="rgba(90, 24, 154, 1)"></path><path d="M490 118.81 L490 441.19" stroke-width="15" stroke="rgba(90, 24, 154, 1)"></path><path d="M510 95.4 L510 464.61" stroke-width="15" stroke="rgba(123, 44, 191, 1)"></path><path d="M530 236.85 L530 323.14" stroke-width="15" stroke="rgba(90, 24, 154, 1)"></path><path d="M550 214.88 L550 345.12" stroke-width="15" stroke="rgba(123, 44, 191, 1)"></path><path d="M570 192.56 L570 367.44" stroke-width="15" stroke="rgba(123, 44, 191, 1)"></path><path d="M590 167.69 L590 392.31" stroke-width="15" stroke="rgba(90, 24, 154, 1)"></path><path d="M610 195.73 L610 364.27" stroke-width="15" stroke="rgba(90, 24, 154, 1)"></path><path d="M630 158.3 L630 401.7" stroke-width="15" stroke="rgba(90, 24, 154, 1)"></path><path d="M650 105.36 L650 454.64" stroke-width="15" stroke="rgba(123, 44, 191, 1)"></path><path d="M670 229.17 L670 330.83" stroke-width="15" stroke="rgba(90, 24, 154, 1)"></path><path d="M690 257.86 L690 302.14" stroke-width="15" stroke="rgba(123, 44, 191, 1)"></path><path d="M710 92.8 L710 467.2" stroke-width="15" stroke="rgba(123, 44, 191, 1)"></path><path d="M730 238.16 L730 321.83" stroke-width="15" stroke="rgba(90, 24, 154, 1)"></path><path d="M750 220.41 L750 339.58" stroke-width="15" stroke="rgba(90, 24, 154, 1)"></path><path d="M770 205.07 L770 354.93" stroke-width="15" stroke="rgba(123, 44, 191, 1)"></path><path d="M790 103.76 L790 456.24" stroke-width="15" stroke="rgba(90, 24, 154, 1)"></path><path d="M810 252.66 L810 307.33" stroke-width="15" stroke="rgba(123, 44, 191, 1)"></path><path d="M830 204.43 L830 355.57" stroke-width="15" stroke="rgba(90, 24, 154, 1)"></path><path d="M850 86.15 L850 473.86" stroke-width="15" stroke="rgba(90, 24, 154, 1)"></path><path d="M870 115.51 L870 444.49" stroke-width="15" stroke="rgba(123, 44, 191, 1)"></path><path d="M890 189.42 L890 370.58" stroke-width="15" stroke="rgba(123, 44, 191, 1)"></path><path d="M910 120.35 L910 439.65" stroke-width="15" stroke="rgba(123, 44, 191, 1)"></path><path d="M930 227.41 L930 332.6" stroke-width="15" stroke="rgba(90, 24, 154, 1)"></path><path d="M950 195.93 L950 364.07" stroke-width="15" stroke="rgba(123, 44, 191, 1)"></path><path d="M970 237.5 L970 322.5" stroke-width="15" stroke="rgba(123, 44, 191, 1)"></path><path d="M990 140.25 L990 419.75" stroke-width="15" stroke="rgba(123, 44, 191, 1)"></path><path d="M1010 252.94 L1010 307.06" stroke-width="15" stroke="rgba(123, 44, 191, 1)"></path><path d="M1030 111.91 L1030 448.09" stroke-width="15" stroke="rgba(123, 44, 191, 1)"></path><path d="M1050 90.87 L1050 469.13" stroke-width="15" stroke="rgba(123, 44, 191, 1)"></path><path d="M1070 89.78 L1070 470.23" stroke-width="15" stroke="rgba(90, 24, 154, 1)"></path><path d="M1090 193.5 L1090 366.5" stroke-width="15" stroke="rgba(123, 44, 191, 1)"></path><path d="M1110 204.68 L1110 355.32" stroke-width="15" stroke="rgba(90, 24, 154, 1)"></path><path d="M1130 134.03 L1130 425.97" stroke-width="15" stroke="rgba(123, 44, 191, 1)"></path><path d="M1150 117.89 L1150 442.11" stroke-width="15" stroke="rgba(123, 44, 191, 1)"></path><path d="M1170 122.73 L1170 437.27" stroke-width="15" stroke="rgba(123, 44, 191, 1)"></path><path d="M1190 156.63 L1190 403.37" stroke-width="15" stroke="rgba(123, 44, 191, 1)"></path><path d="M1210 107.32 L1210 452.68" stroke-width="15" stroke="rgba(90, 24, 154, 1)"></path><path d="M1230 221.72 L1230 338.27" stroke-width="15" stroke="rgba(123, 44, 191, 1)"></path><path d="M1250 111.89 L1250 448.11" stroke-width="15" stroke="rgba(90, 24, 154, 1)"></path></g></g><defs><mask id="SvgjsMask1719"><rect width="1440" height="560" fill="#ffffff"></rect></mask></defs></svg>