<svg xmlns="http://www.w3.org/2000/svg" version="1.1" xmlns:xlink="http://www.w3.org/1999/xlink" xmlns:svgjs="http://svgjs.dev/svgjs" width="1440" height="560" preserveAspectRatio="none" viewBox="0 0 1440 560"><g mask="url(&quot;#SvgjsMask1752&quot;)" fill="none"><g transform="translate(0, 0)" stroke-linecap="round"><path d="M126 99.02 L126 460.98" stroke-width="9" stroke="rgba(16, 0, 43, 1)"></path><path d="M138 132.62 L138 427.38" stroke-width="9" stroke="rgba(16, 0, 43, 1)"></path><path d="M150 74.96 L150 485.04" stroke-width="9" stroke="rgba(36, 0, 70, 1)"></path><path d="M162 176.36 L162 383.64" stroke-width="9" stroke="rgba(16, 0, 43, 1)"></path><path d="M174 159.45 L174 400.55" stroke-width="9" stroke="rgba(16, 0, 43, 1)"></path><path d="M186 121.79 L186 438.21" stroke-width="9" stroke="rgba(36, 0, 70, 1)"></path><path d="M198 244.24 L198 315.76" stroke-width="9" stroke="rgba(16, 0, 43, 1)"></path><path d="M210 77.78 L210 482.22" stroke-width="9" stroke="rgba(16, 0, 43, 1)"></path><path d="M222 208.83 L222 351.17" stroke-width="9" stroke="rgba(16, 0, 43, 1)"></path><path d="M234 88.19 L234 471.81" stroke-width="9" stroke="rgba(16, 0, 43, 1)"></path><path d="M246 101.85 L246 458.15" stroke-width="9" stroke="rgba(16, 0, 43, 1)"></path><path d="M258 93.74 L258 466.26" stroke-width="9" stroke="rgba(36, 0, 70, 1)"></path><path d="M270 130.5 L270 429.5" stroke-width="9" stroke="rgba(16, 0, 43, 1)"></path><path d="M282 62.34 L282 497.66" stroke-width="9" stroke="rgba(36, 0, 70, 1)"></path><path d="M294 229.41 L294 330.58" stroke-width="9" stroke="rgba(36, 0, 70, 1)"></path><path d="M306 143.48 L306 416.52" stroke-width="9" stroke="rgba(16, 0, 43, 1)"></path><path d="M318 89.02 L318 470.98" stroke-width="9" stroke="rgba(36, 0, 70, 1)"></path><path d="M330 157.97 L330 402.03" stroke-width="9" stroke="rgba(36, 0, 70, 1)"></path><path d="M342 166.42 L342 393.58" stroke-width="9" stroke="rgba(36, 0, 70, 1)"></path><path d="M354 189.39 L354 370.61" stroke-width="9" stroke="rgba(36, 0, 70, 1)"></path><path d="M366 98.41 L366 461.59" stroke-width="9" stroke="rgba(16, 0, 43, 1)"></path><path d="M378 119.05 L378 440.95" stroke-width="9" stroke="rgba(36, 0, 70, 1)"></path><path d="M390 173.17 L390 386.83" stroke-width="9" stroke="rgba(36, 0, 70, 1)"></path><path d="M402 134.38 L402 425.63" stroke-width="9" stroke="rgba(36, 0, 70, 1)"></path><path d="M414 77.98 L414 482.02" stroke-width="9" stroke="rgba(16, 0, 43, 1)"></path><path d="M426 70.05 L426 489.95" stroke-width="9" stroke="rgba(36, 0, 70, 1)"></path><path d="M438 160.3 L438 399.7" stroke-width="9" stroke="rgba(36, 0, 70, 1)"></path><path d="M450 199.11 L450 360.89" stroke-width="9" stroke="rgba(36, 0, 70, 1)"></path><path d="M462 235.41 L462 324.58" stroke-width="9" stroke="rgba(36, 0, 70, 1)"></path><path d="M474 56.51 L474 503.49" stroke-width="9" stroke="rgba(36, 0, 70, 1)"></path><path d="M486 138.53 L486 421.47" stroke-width="9" stroke="rgba(36, 0, 70, 1)"></path><path d="M498 238.46 L498 321.54" stroke-width="9" stroke="rgba(36, 0, 70, 1)"></path><path d="M510 145.04 L510 414.96" stroke-width="9" stroke="rgba(36, 0, 70, 1)"></path><path d="M522 235.53 L522 324.48" stroke-width="9" stroke="rgba(36, 0, 70, 1)"></path><path d="M534 60.53 L534 499.48" stroke-width="9" stroke="rgba(36, 0, 70, 1)"></path><path d="M546 198.53 L546 361.47" stroke-width="9" stroke="rgba(36, 0, 70, 1)"></path><path d="M558 58.32 L558 501.68" stroke-width="9" stroke="rgba(16, 0, 43, 1)"></path><path d="M570 169.49 L570 390.51" stroke-width="9" stroke="rgba(36, 0, 70, 1)"></path><path d="M582 94.79 L582 465.21" stroke-width="9" stroke="rgba(16, 0, 43, 1)"></path><path d="M594 227.79 L594 332.21" stroke-width="9" stroke="rgba(36, 0, 70, 1)"></path><path d="M606 239.18 L606 320.82" stroke-width="9" stroke="rgba(16, 0, 43, 1)"></path><path d="M618 224.63 L618 335.37" stroke-width="9" stroke="rgba(16, 0, 43, 1)"></path><path d="M630 228.84 L630 331.15" stroke-width="9" stroke="rgba(36, 0, 70, 1)"></path><path d="M642 123.96 L642 436.04" stroke-width="9" stroke="rgba(36, 0, 70, 1)"></path><path d="M654 193.55 L654 366.45" stroke-width="9" stroke="rgba(36, 0, 70, 1)"></path><path d="M666 76.16 L666 483.85" stroke-width="9" stroke="rgba(36, 0, 70, 1)"></path><path d="M678 82.04 L678 477.96" stroke-width="9" stroke="rgba(16, 0, 43, 1)"></path><path d="M690 200.3 L690 359.7" stroke-width="9" stroke="rgba(16, 0, 43, 1)"></path><path d="M702 88.89 L702 471.11" stroke-width="9" stroke="rgba(36, 0, 70, 1)"></path><path d="M714 180.66 L714 379.35" stroke-width="9" stroke="rgba(36, 0, 70, 1)"></path><path d="M726 99.22 L726 460.78" stroke-width="9" stroke="rgba(36, 0, 70, 1)"></path><path d="M738 127.94 L738 432.06" stroke-width="9" stroke="rgba(16, 0, 43, 1)"></path><path d="M750 138.82 L750 421.18" stroke-width="9" stroke="rgba(36, 0, 70, 1)"></path><path d="M762 182.92 L762 377.08" stroke-width="9" stroke="rgba(36, 0, 70, 1)"></path><path d="M774 113.53 L774 446.47" stroke-width="9" stroke="rgba(16, 0, 43, 1)"></path><path d="M786 81.16 L786 478.84" stroke-width="9" stroke="rgba(16, 0, 43, 1)"></path><path d="M798 180.84 L798 379.16" stroke-width="9" stroke="rgba(36, 0, 70, 1)"></path><path d="M810 206.01 L810 353.99" stroke-width="9" stroke="rgba(16, 0, 43, 1)"></path><path d="M822 67.82 L822 492.18" stroke-width="9" stroke="rgba(36, 0, 70, 1)"></path><path d="M834 153.41 L834 406.59" stroke-width="9" stroke="rgba(16, 0, 43, 1)"></path><path d="M846 156.92 L846 403.08" stroke-width="9" stroke="rgba(16, 0, 43, 1)"></path><path d="M858 254.45 L858 305.55" stroke-width="9" stroke="rgba(16, 0, 43, 1)"></path><path d="M870 195.91 L870 364.1" stroke-width="9" stroke="rgba(16, 0, 43, 1)"></path><path d="M882 74.19 L882 485.81" stroke-width="9" stroke="rgba(36, 0, 70, 1)"></path><path d="M894 154.32 L894 405.68" stroke-width="9" stroke="rgba(16, 0, 43, 1)"></path><path d="M906 193.39 L906 366.61" stroke-width="9" stroke="rgba(36, 0, 70, 1)"></path><path d="M918 200.13 L918 359.87" stroke-width="9" stroke="rgba(36, 0, 70, 1)"></path><path d="M930 187.2 L930 372.8" stroke-width="9" stroke="rgba(36, 0, 70, 1)"></path><path d="M942 251.88 L942 308.12" stroke-width="9" stroke="rgba(16, 0, 43, 1)"></path><path d="M954 160.4 L954 399.6" stroke-width="9" stroke="rgba(36, 0, 70, 1)"></path><path d="M966 243.75 L966 316.25" stroke-width="9" stroke="rgba(36, 0, 70, 1)"></path><path d="M978 155.64 L978 404.36" stroke-width="9" stroke="rgba(36, 0, 70, 1)"></path><path d="M990 182.34 L990 377.65" stroke-width="9" stroke="rgba(16, 0, 43, 1)"></path><path d="M1002 160.92 L1002 399.08" stroke-width="9" stroke="rgba(16, 0, 43, 1)"></path><path d="M1014 148.53 L1014 411.48" stroke-width="9" stroke="rgba(36, 0, 70, 1)"></path><path d="M1026 78.28 L1026 481.72" stroke-width="9" stroke="rgba(36, 0, 70, 1)"></path><path d="M1038 69.69 L1038 490.31" stroke-width="9" stroke="rgba(16, 0, 43, 1)"></path><path d="M1050 163.96 L1050 396.04" stroke-width="9" stroke="rgba(36, 0, 70, 1)"></path><path d="M1062 193.5 L1062 366.5" stroke-width="9" stroke="rgba(36, 0, 70, 1)"></path><path d="M1074 232.65 L1074 327.36" stroke-width="9" stroke="rgba(16, 0, 43, 1)"></path><path d="M1086 114.09 L1086 445.91" stroke-width="9" stroke="rgba(36, 0, 70, 1)"></path><path d="M1098 108.64 L1098 451.36" stroke-width="9" stroke="rgba(16, 0, 43, 1)"></path><path d="M1110 103.25 L1110 456.75" stroke-width="9" stroke="rgba(36, 0, 70, 1)"></path><path d="M1122 103.12 L1122 456.88" stroke-width="9" stroke="rgba(36, 0, 70, 1)"></path><path d="M1134 248.49 L1134 311.51" stroke-width="9" stroke="rgba(36, 0, 70, 1)"></path><path d="M1146 71.21 L1146 488.79" stroke-width="9" stroke="rgba(16, 0, 43, 1)"></path><path d="M1158 155.32 L1158 404.68" stroke-width="9" stroke="rgba(16, 0, 43, 1)"></path><path d="M1170 69.76 L1170 490.24" stroke-width="9" stroke="rgba(16, 0, 43, 1)"></path><path d="M1182 144.41 L1182 415.59" stroke-width="9" stroke="rgba(36, 0, 70, 1)"></path><path d="M1194 251.57 L1194 308.43" stroke-width="9" stroke="rgba(16, 0, 43, 1)"></path><path d="M1206 232.09 L1206 327.92" stroke-width="9" stroke="rgba(36, 0, 70, 1)"></path><path d="M1218 144.69 L1218 415.31" stroke-width="9" stroke="rgba(36, 0, 70, 1)"></path><path d="M1230 79.58 L1230 480.42" stroke-width="9" stroke="rgba(36, 0, 70, 1)"></path><path d="M1242 224.91 L1242 335.09" stroke-width="9" stroke="rgba(16, 0, 43, 1)"></path><path d="M1254 174.13 L1254 385.87" stroke-width="9" stroke="rgba(36, 0, 70, 1)"></path><path d="M1266 229.05 L1266 330.95" stroke-width="9" stroke="rgba(36, 0, 70, 1)"></path><path d="M1278 71.54 L1278 488.46" stroke-width="9" stroke="rgba(16, 0, 43, 1)"></path><path d="M1290 113.43 L1290 446.57" stroke-width="9" stroke="rgba(36, 0, 70, 1)"></path><path d="M1302 85.75 L1302 474.25" stroke-width="9" stroke="rgba(16, 0, 43, 1)"></path><path d="M1314 152.13 L1314 407.87" stroke-width="9" stroke="rgba(36, 0, 70, 1)"></path></g></g><defs><mask id="SvgjsMask1752"><rect width="1440" height="560" fill="#ffffff"></rect></mask></defs></svg>