<svg xmlns="http://www.w3.org/2000/svg" version="1.1" xmlns:xlink="http://www.w3.org/1999/xlink" xmlns:svgjs="http://svgjs.dev/svgjs" width="1440" height="560" preserveAspectRatio="none" viewBox="0 0 1440 560"><g mask="url(&quot;#SvgjsMask1015&quot;)" fill="none"><g transform="translate(0, 0)" stroke-linecap="round"><path d="M270 157.09 L270 402.91" stroke-width="15" stroke="rgba(90, 24, 154, 1)"></path><path d="M290 118.72 L290 441.28" stroke-width="15" stroke="rgba(90, 24, 154, 1)"></path><path d="M310 128.31 L310 431.69" stroke-width="15" stroke="rgba(123, 44, 191, 1)"></path><path d="M330 185.78 L330 374.23" stroke-width="15" stroke="rgba(123, 44, 191, 1)"></path><path d="M350 180.51 L350 379.49" stroke-width="15" stroke="rgba(123, 44, 191, 1)"></path><path d="M370 195.47 L370 364.53" stroke-width="15" stroke="rgba(90, 24, 154, 1)"></path><path d="M390 151.42 L390 408.58" stroke-width="15" stroke="rgba(90, 24, 154, 1)"></path><path d="M410 193.43 L410 366.57" stroke-width="15" stroke="rgba(123, 44, 191, 1)"></path><path d="M430 218.22 L430 341.78" stroke-width="15" stroke="rgba(90, 24, 154, 1)"></path><path d="M450 226.81 L450 333.19" stroke-width="15" stroke="rgba(123, 44, 191, 1)"></path><path d="M470 214.56 L470 345.44" stroke-width="15" stroke="rgba(90, 24, 154, 1)"></path><path d="M490 118.47 L490 441.53" stroke-width="15" stroke="rgba(90, 24, 154, 1)"></path><path d="M510 109.47 L510 450.53" stroke-width="15" stroke="rgba(123, 44, 191, 1)"></path><path d="M530 226.51 L530 333.49" stroke-width="15" stroke="rgba(123, 44, 191, 1)"></path><path d="M550 242.66 L550 317.34" stroke-width="15" stroke="rgba(90, 24, 154, 1)"></path><path d="M570 257.44 L570 302.56" stroke-width="15" stroke="rgba(123, 44, 191, 1)"></path><path d="M590 212.5 L590 347.5" stroke-width="15" stroke="rgba(123, 44, 191, 1)"></path><path d="M610 209.34 L610 350.66" stroke-width="15" stroke="rgba(90, 24, 154, 1)"></path><path d="M630 125.52 L630 434.48" stroke-width="15" stroke="rgba(90, 24, 154, 1)"></path><path d="M650 186.08 L650 373.92" stroke-width="15" stroke="rgba(90, 24, 154, 1)"></path><path d="M670 224.98 L670 335.02" stroke-width="15" stroke="rgba(123, 44, 191, 1)"></path><path d="M690 184.68 L690 375.32" stroke-width="15" stroke="rgba(123, 44, 191, 1)"></path><path d="M710 155.98 L710 404.02" stroke-width="15" stroke="rgba(90, 24, 154, 1)"></path><path d="M730 173.18 L730 386.82" stroke-width="15" stroke="rgba(90, 24, 154, 1)"></path><path d="M750 234.21 L750 325.79" stroke-width="15" stroke="rgba(123, 44, 191, 1)"></path><path d="M770 224.94 L770 335.06" stroke-width="15" stroke="rgba(123, 44, 191, 1)"></path><path d="M790 247.22 L790 312.77" stroke-width="15" stroke="rgba(123, 44, 191, 1)"></path><path d="M810 138.19 L810 421.81" stroke-width="15" stroke="rgba(90, 24, 154, 1)"></path><path d="M830 223.5 L830 336.5" stroke-width="15" stroke="rgba(123, 44, 191, 1)"></path><path d="M850 244.41 L850 315.58" stroke-width="15" stroke="rgba(90, 24, 154, 1)"></path><path d="M870 154.26 L870 405.74" stroke-width="15" stroke="rgba(90, 24, 154, 1)"></path><path d="M890 185.97 L890 374.03" stroke-width="15" stroke="rgba(123, 44, 191, 1)"></path><path d="M910 113.18 L910 446.82" stroke-width="15" stroke="rgba(123, 44, 191, 1)"></path><path d="M930 227.63 L930 332.37" stroke-width="15" stroke="rgba(90, 24, 154, 1)"></path><path d="M950 128.38 L950 431.63" stroke-width="15" stroke="rgba(90, 24, 154, 1)"></path><path d="M970 181.25 L970 378.75" stroke-width="15" stroke="rgba(123, 44, 191, 1)"></path><path d="M990 204.11 L990 355.89" stroke-width="15" stroke="rgba(90, 24, 154, 1)"></path><path d="M1010 211.94 L1010 348.06" stroke-width="15" stroke="rgba(90, 24, 154, 1)"></path><path d="M1030 213.28 L1030 346.72" stroke-width="15" stroke="rgba(90, 24, 154, 1)"></path><path d="M1050 231.84 L1050 328.16" stroke-width="15" stroke="rgba(123, 44, 191, 1)"></path><path d="M1070 132.37 L1070 427.63" stroke-width="15" stroke="rgba(123, 44, 191, 1)"></path><path d="M1090 240.3 L1090 319.7" stroke-width="15" stroke="rgba(90, 24, 154, 1)"></path><path d="M1110 117.9 L1110 442.1" stroke-width="15" stroke="rgba(123, 44, 191, 1)"></path><path d="M1130 248.66 L1130 311.35" stroke-width="15" stroke="rgba(123, 44, 191, 1)"></path><path d="M1150 214.39 L1150 345.61" stroke-width="15" stroke="rgba(123, 44, 191, 1)"></path><path d="M1170 131.16 L1170 428.85" stroke-width="15" stroke="rgba(90, 24, 154, 1)"></path></g></g><defs><mask id="SvgjsMask1015"><rect width="1440" height="560" fill="#ffffff"></rect></mask></defs></svg>