<?xml version="1.0" encoding="UTF-8"?>
<svg version="1.1" xmlns="http://www.w3.org/2000/svg" width="24" height="24">
<path d="M0 0 C0.886875 -0.00257812 1.77375 -0.00515625 2.6875 -0.0078125 C4.0796875 0.00378906 4.0796875 0.00378906 5.5 0.015625 C6.428125 0.00789062 7.35625 0.00015625 8.3125 -0.0078125 C9.6428125 -0.00394531 9.6428125 -0.00394531 11 0 C11.8146875 0.00225586 12.629375 0.00451172 13.46875 0.00683594 C15.5 0.265625 15.5 0.265625 17.5 2.265625 C17.64507695 5.01048093 17.68652423 7.65043043 17.625 10.390625 C17.61597656 11.14472656 17.60695313 11.89882812 17.59765625 12.67578125 C17.5740687 14.53919754 17.53819719 16.40245093 17.5 18.265625 C16.84 18.265625 16.18 18.265625 15.5 18.265625 C15.5 18.925625 15.5 19.585625 15.5 20.265625 C14.84 20.265625 14.18 20.265625 13.5 20.265625 C13.5 19.605625 13.5 18.945625 13.5 18.265625 C8.22 18.265625 2.94 18.265625 -2.5 18.265625 C-2.5 18.925625 -2.5 19.585625 -2.5 20.265625 C-3.16 20.265625 -3.82 20.265625 -4.5 20.265625 C-4.5 19.605625 -4.5 18.945625 -4.5 18.265625 C-5.16 18.265625 -5.82 18.265625 -6.5 18.265625 C-6.55382106 15.64035311 -6.59358313 13.01617787 -6.625 10.390625 C-6.64175781 9.64425781 -6.65851562 8.89789063 -6.67578125 8.12890625 C-6.6933959 6.17368039 -6.60320189 4.21820479 -6.5 2.265625 C-4.05013068 -0.18424432 -3.362922 0.00931189 0 0 Z " fill="#665B50" transform="translate(6.5,1.734375)"/>
<path d="M0 0 C1.75570313 0.02707031 1.75570313 0.02707031 3.546875 0.0546875 C4.88492187 0.08949219 4.88492187 0.08949219 6.25 0.125 C5.92 0.785 5.59 1.445 5.25 2.125 C6.57 2.455 7.89 2.785 9.25 3.125 C9.25 5.105 9.25 7.085 9.25 9.125 C5.29 9.125 1.33 9.125 -2.75 9.125 C-2.09 7.805 -1.43 6.485 -0.75 5.125 C-3.06 4.795 -5.37 4.465 -7.75 4.125 C-7.75 5.775 -7.75 7.425 -7.75 9.125 C-2.14 9.455 3.47 9.785 9.25 10.125 C5.25 13.125 5.25 13.125 2.890625 13.19921875 C1.70726562 13.00779297 1.70726562 13.00779297 0.5 12.8125 C-0.29921875 12.69261719 -1.0984375 12.57273437 -1.921875 12.44921875 C-2.52515625 12.34222656 -3.1284375 12.23523437 -3.75 12.125 C-4.08 12.785 -4.41 13.445 -4.75 14.125 C-6.07 14.125 -7.39 14.125 -8.75 14.125 C-9.41 14.785 -10.07 15.445 -10.75 16.125 C-10.75 11.505 -10.75 6.885 -10.75 2.125 C-6.52746115 0.01373057 -4.60998477 -0.0921997 0 0 Z " fill="#7B644C" transform="translate(11.75,2.875)"/>
<path d="M0 0 C0.886875 -0.00257812 1.77375 -0.00515625 2.6875 -0.0078125 C4.0796875 0.00378906 4.0796875 0.00378906 5.5 0.015625 C6.428125 0.00789062 7.35625 0.00015625 8.3125 -0.0078125 C9.6428125 -0.00394531 9.6428125 -0.00394531 11 0 C11.8146875 0.00225586 12.629375 0.00451172 13.46875 0.00683594 C15.5 0.265625 15.5 0.265625 17.5 2.265625 C17.64507695 5.01048093 17.68652423 7.65043043 17.625 10.390625 C17.61597656 11.14472656 17.60695313 11.89882812 17.59765625 12.67578125 C17.5740687 14.53919754 17.53819719 16.40245093 17.5 18.265625 C16.84 18.265625 16.18 18.265625 15.5 18.265625 C15.5 18.925625 15.5 19.585625 15.5 20.265625 C14.84 20.265625 14.18 20.265625 13.5 20.265625 C13.5 19.605625 13.5 18.945625 13.5 18.265625 C8.22 18.265625 2.94 18.265625 -2.5 18.265625 C-2.5 18.925625 -2.5 19.585625 -2.5 20.265625 C-3.16 20.265625 -3.82 20.265625 -4.5 20.265625 C-4.5 19.605625 -4.5 18.945625 -4.5 18.265625 C-5.16 18.265625 -5.82 18.265625 -6.5 18.265625 C-6.55382106 15.64035311 -6.59358313 13.01617787 -6.625 10.390625 C-6.64175781 9.64425781 -6.65851562 8.89789063 -6.67578125 8.12890625 C-6.6933959 6.17368039 -6.60320189 4.21820479 -6.5 2.265625 C-4.05013068 -0.18424432 -3.362922 0.00931189 0 0 Z M-5.5 3.265625 C-5.5 7.885625 -5.5 12.505625 -5.5 17.265625 C1.76 17.265625 9.02 17.265625 16.5 17.265625 C16.5 12.975625 16.5 8.685625 16.5 4.265625 C13.53 3.770625 13.53 3.770625 10.5 3.265625 C10.83 2.605625 11.16 1.945625 11.5 1.265625 C9.41695462 1.21144174 7.33350232 1.17274949 5.25 1.140625 C4.08984375 1.11742187 2.9296875 1.09421875 1.734375 1.0703125 C-1.76097027 1.06903736 -1.76097027 1.06903736 -5.5 3.265625 Z " fill="#444E52" transform="translate(6.5,1.734375)"/>
<path d="M0 0 C0.33 0 0.66 0 1 0 C1.33 2.31 1.66 4.62 2 7 C7.94 7.33 13.88 7.66 20 8 C16 11 16 11 13.640625 11.07421875 C12.45726562 10.88279297 12.45726562 10.88279297 11.25 10.6875 C10.45078125 10.56761719 9.6515625 10.44773437 8.828125 10.32421875 C8.22484375 10.21722656 7.6215625 10.11023437 7 10 C6.67 10.66 6.34 11.32 6 12 C4.68 12 3.36 12 2 12 C1.34 12.66 0.68 13.32 0 14 C0 9.38 0 4.76 0 0 Z " fill="#A56C3B" transform="translate(1,5)"/>
<path d="M0 0 C4.62 0 9.24 0 14 0 C14 0.99 14 1.98 14 3 C10.24600202 4.2039337 6.66782588 4.09877617 2.75 4.0625 C1.48671875 4.05347656 0.2234375 4.04445313 -1.078125 4.03515625 C-2.04234375 4.02355469 -3.0065625 4.01195312 -4 4 C-3.67 3.01 -3.34 2.02 -3 1 C-2.01 1.33 -1.02 1.66 0 2 C0 1.34 0 0.68 0 0 Z " fill="#806E5C" transform="translate(6,15)"/>
<path d="M0 0 C0 1.98 0 3.96 0 6 C-3.96 6 -7.92 6 -12 6 C-11.34 4.68 -10.68 3.36 -10 2 C-10 1.67 -10 1.34 -10 1 C-6.56484998 0.37542727 -3.50935186 0 0 0 Z " fill="#9F683B" transform="translate(21,6)"/>
<path d="M0 0 C0.33 0 0.66 0 1 0 C1 4.29 1 8.58 1 13 C-1.31 13 -3.62 13 -6 13 C-4.68 12.67 -3.36 12.34 -2 12 C-2 11.01 -2 10.02 -2 9 C-2.66 8.67 -3.32 8.34 -4 8 C-3.01 8 -2.02 8 -1 8 C-0.67 5.36 -0.34 2.72 0 0 Z " fill="#825436" transform="translate(22,6)"/>
<path d="M0 0 C0.33 0 0.66 0 1 0 C1.33 2.97 1.66 5.94 2 9 C2.99 9 3.98 9 5 9 C5 9.99 5 10.98 5 12 C4.01 12 3.02 12 2 12 C1.34 12.66 0.68 13.32 0 14 C0 9.38 0 4.76 0 0 Z " fill="#AA8B67" transform="translate(1,5)"/>
<path d="M0 0 C-0.33 2.31 -0.66 4.62 -1 7 C-1.33 7 -1.66 7 -2 7 C-2 5.02 -2 3.04 -2 1 C-5.3 0.67 -8.6 0.34 -12 0 C-12 -0.33 -12 -0.66 -12 -1 C-7.28400182 -1.92470553 -4.32734391 -2.22923777 0 0 Z " fill="#5D5348" transform="translate(23,5)"/>
</svg>
