<svg xmlns="http://www.w3.org/2000/svg" version="1.1" xmlns:xlink="http://www.w3.org/1999/xlink" xmlns:svgjs="http://svgjs.dev/svgjs" width="1440" height="560" preserveAspectRatio="none" viewBox="0 0 1440 560"><g mask="url(&quot;#SvgjsMask1747&quot;)" fill="none"><g transform="translate(0, 0)" stroke-linecap="round"><path d="M125 177.06 L125 382.94" stroke-width="10.5" stroke="rgba(247, 247, 247, 1)"></path><path d="M139 249.44 L139 310.56" stroke-width="10.5" stroke="rgba(255, 255, 255, 1)"></path><path d="M153 212.73 L153 347.27" stroke-width="10.5" stroke="rgba(247, 247, 247, 1)"></path><path d="M167 118.82 L167 441.18" stroke-width="10.5" stroke="rgba(255, 255, 255, 1)"></path><path d="M181 76.32 L181 483.68" stroke-width="10.5" stroke="rgba(255, 255, 255, 1)"></path><path d="M195 171.92 L195 388.08" stroke-width="10.5" stroke="rgba(247, 247, 247, 1)"></path><path d="M209 58.63 L209 501.37" stroke-width="10.5" stroke="rgba(247, 247, 247, 1)"></path><path d="M223 125.97 L223 434.03" stroke-width="10.5" stroke="rgba(255, 255, 255, 1)"></path><path d="M237 193.38 L237 366.63" stroke-width="10.5" stroke="rgba(255, 255, 255, 1)"></path><path d="M251 114.69 L251 445.31" stroke-width="10.5" stroke="rgba(255, 255, 255, 1)"></path><path d="M265 134.79 L265 425.21" stroke-width="10.5" stroke="rgba(255, 255, 255, 1)"></path><path d="M279 108.6 L279 451.39" stroke-width="10.5" stroke="rgba(255, 255, 255, 1)"></path><path d="M293 119.94 L293 440.06" stroke-width="10.5" stroke="rgba(255, 255, 255, 1)"></path><path d="M307 159.57 L307 400.43" stroke-width="10.5" stroke="rgba(247, 247, 247, 1)"></path><path d="M321 99.07 L321 460.93" stroke-width="10.5" stroke="rgba(255, 255, 255, 1)"></path><path d="M335 243.1 L335 316.89" stroke-width="10.5" stroke="rgba(255, 255, 255, 1)"></path><path d="M349 252.91 L349 307.09" stroke-width="10.5" stroke="rgba(255, 255, 255, 1)"></path><path d="M363 62.91 L363 497.1" stroke-width="10.5" stroke="rgba(247, 247, 247, 1)"></path><path d="M377 172.74 L377 387.26" stroke-width="10.5" stroke="rgba(247, 247, 247, 1)"></path><path d="M391 231.78 L391 328.22" stroke-width="10.5" stroke="rgba(247, 247, 247, 1)"></path><path d="M405 138.05 L405 421.95" stroke-width="10.5" stroke="rgba(247, 247, 247, 1)"></path><path d="M419 231.72 L419 328.28" stroke-width="10.5" stroke="rgba(247, 247, 247, 1)"></path><path d="M433 124.77 L433 435.23" stroke-width="10.5" stroke="rgba(255, 255, 255, 1)"></path><path d="M447 208.85 L447 351.15" stroke-width="10.5" stroke="rgba(255, 255, 255, 1)"></path><path d="M461 184.84 L461 375.16" stroke-width="10.5" stroke="rgba(255, 255, 255, 1)"></path><path d="M475 206.58 L475 353.42" stroke-width="10.5" stroke="rgba(247, 247, 247, 1)"></path><path d="M489 88.29 L489 471.71" stroke-width="10.5" stroke="rgba(247, 247, 247, 1)"></path><path d="M503 88.59 L503 471.41" stroke-width="10.5" stroke="rgba(255, 255, 255, 1)"></path><path d="M517 185.16 L517 374.84" stroke-width="10.5" stroke="rgba(247, 247, 247, 1)"></path><path d="M531 172.72 L531 387.28" stroke-width="10.5" stroke="rgba(247, 247, 247, 1)"></path><path d="M545 66.54 L545 493.46" stroke-width="10.5" stroke="rgba(247, 247, 247, 1)"></path><path d="M559 60.05 L559 499.95" stroke-width="10.5" stroke="rgba(255, 255, 255, 1)"></path><path d="M573 86.54 L573 473.46" stroke-width="10.5" stroke="rgba(247, 247, 247, 1)"></path><path d="M587 71.29 L587 488.71" stroke-width="10.5" stroke="rgba(255, 255, 255, 1)"></path><path d="M601 152.72 L601 407.28" stroke-width="10.5" stroke="rgba(247, 247, 247, 1)"></path><path d="M615 57.71 L615 502.29" stroke-width="10.5" stroke="rgba(255, 255, 255, 1)"></path><path d="M629 254.26 L629 305.74" stroke-width="10.5" stroke="rgba(255, 255, 255, 1)"></path><path d="M643 167.62 L643 392.38" stroke-width="10.5" stroke="rgba(255, 255, 255, 1)"></path><path d="M657 181.13 L657 378.87" stroke-width="10.5" stroke="rgba(255, 255, 255, 1)"></path><path d="M671 57.53 L671 502.48" stroke-width="10.5" stroke="rgba(247, 247, 247, 1)"></path><path d="M685 112.05 L685 447.95" stroke-width="10.5" stroke="rgba(247, 247, 247, 1)"></path><path d="M699 230.03 L699 329.98" stroke-width="10.5" stroke="rgba(255, 255, 255, 1)"></path><path d="M713 78.37 L713 481.63" stroke-width="10.5" stroke="rgba(255, 255, 255, 1)"></path><path d="M727 123.81 L727 436.19" stroke-width="10.5" stroke="rgba(247, 247, 247, 1)"></path><path d="M741 218.02 L741 341.98" stroke-width="10.5" stroke="rgba(247, 247, 247, 1)"></path><path d="M755 178.63 L755 381.37" stroke-width="10.5" stroke="rgba(255, 255, 255, 1)"></path><path d="M769 111.77 L769 448.23" stroke-width="10.5" stroke="rgba(247, 247, 247, 1)"></path><path d="M783 248.33 L783 311.67" stroke-width="10.5" stroke="rgba(247, 247, 247, 1)"></path><path d="M797 128.44 L797 431.56" stroke-width="10.5" stroke="rgba(247, 247, 247, 1)"></path><path d="M811 233.9 L811 326.1" stroke-width="10.5" stroke="rgba(255, 255, 255, 1)"></path><path d="M825 68.94 L825 491.06" stroke-width="10.5" stroke="rgba(247, 247, 247, 1)"></path><path d="M839 238 L839 322" stroke-width="10.5" stroke="rgba(247, 247, 247, 1)"></path><path d="M853 60.93 L853 499.07" stroke-width="10.5" stroke="rgba(247, 247, 247, 1)"></path><path d="M867 59.33 L867 500.67" stroke-width="10.5" stroke="rgba(247, 247, 247, 1)"></path><path d="M881 228.56 L881 331.44" stroke-width="10.5" stroke="rgba(247, 247, 247, 1)"></path><path d="M895 132.06 L895 427.94" stroke-width="10.5" stroke="rgba(247, 247, 247, 1)"></path><path d="M909 162.41 L909 397.59" stroke-width="10.5" stroke="rgba(255, 255, 255, 1)"></path><path d="M923 206.14 L923 353.86" stroke-width="10.5" stroke="rgba(247, 247, 247, 1)"></path><path d="M937 202.76 L937 357.24" stroke-width="10.5" stroke="rgba(255, 255, 255, 1)"></path><path d="M951 168.04 L951 391.96" stroke-width="10.5" stroke="rgba(247, 247, 247, 1)"></path><path d="M965 119.97 L965 440.03" stroke-width="10.5" stroke="rgba(247, 247, 247, 1)"></path><path d="M979 121.94 L979 438.06" stroke-width="10.5" stroke="rgba(255, 255, 255, 1)"></path><path d="M993 176.18 L993 383.82" stroke-width="10.5" stroke="rgba(247, 247, 247, 1)"></path><path d="M1007 83 L1007 477" stroke-width="10.5" stroke="rgba(255, 255, 255, 1)"></path><path d="M1021 184.19 L1021 375.81" stroke-width="10.5" stroke="rgba(255, 255, 255, 1)"></path><path d="M1035 219.03 L1035 340.98" stroke-width="10.5" stroke="rgba(247, 247, 247, 1)"></path><path d="M1049 71.09 L1049 488.9" stroke-width="10.5" stroke="rgba(255, 255, 255, 1)"></path><path d="M1063 80.16 L1063 479.84" stroke-width="10.5" stroke="rgba(255, 255, 255, 1)"></path><path d="M1077 92.54 L1077 467.46" stroke-width="10.5" stroke="rgba(255, 255, 255, 1)"></path><path d="M1091 116.66 L1091 443.34" stroke-width="10.5" stroke="rgba(247, 247, 247, 1)"></path><path d="M1105 145.23 L1105 414.77" stroke-width="10.5" stroke="rgba(247, 247, 247, 1)"></path><path d="M1119 94.16 L1119 465.84" stroke-width="10.5" stroke="rgba(247, 247, 247, 1)"></path><path d="M1133 220.15 L1133 339.86" stroke-width="10.5" stroke="rgba(247, 247, 247, 1)"></path><path d="M1147 224.63 L1147 335.38" stroke-width="10.5" stroke="rgba(247, 247, 247, 1)"></path><path d="M1161 243.69 L1161 316.31" stroke-width="10.5" stroke="rgba(247, 247, 247, 1)"></path><path d="M1175 74.81 L1175 485.19" stroke-width="10.5" stroke="rgba(247, 247, 247, 1)"></path><path d="M1189 189.32 L1189 370.68" stroke-width="10.5" stroke="rgba(247, 247, 247, 1)"></path><path d="M1203 104.31 L1203 455.69" stroke-width="10.5" stroke="rgba(255, 255, 255, 1)"></path><path d="M1217 225.38 L1217 334.62" stroke-width="10.5" stroke="rgba(255, 255, 255, 1)"></path><path d="M1231 159.89 L1231 400.11" stroke-width="10.5" stroke="rgba(255, 255, 255, 1)"></path><path d="M1245 157.5 L1245 402.5" stroke-width="10.5" stroke="rgba(255, 255, 255, 1)"></path><path d="M1259 64.44 L1259 495.56" stroke-width="10.5" stroke="rgba(247, 247, 247, 1)"></path><path d="M1273 218.66 L1273 341.35" stroke-width="10.5" stroke="rgba(247, 247, 247, 1)"></path><path d="M1287 226.37 L1287 333.63" stroke-width="10.5" stroke="rgba(247, 247, 247, 1)"></path><path d="M1301 238.08 L1301 321.92" stroke-width="10.5" stroke="rgba(247, 247, 247, 1)"></path><path d="M1315 178.65 L1315 381.35" stroke-width="10.5" stroke="rgba(247, 247, 247, 1)"></path></g></g><defs><mask id="SvgjsMask1747"><rect width="1440" height="560" fill="#ffffff"></rect></mask></defs></svg>